<mxfile host="65bd71144e">
    <diagram id="6hGjJqjaPUIHLYzqYKvI" name="Page-1">
        <mxGraphModel dx="1676" dy="2073" grid="1" gridSize="30" guides="1" tooltips="1" connect="1" arrows="1" fold="1" page="1" pageScale="1" pageWidth="827" pageHeight="1169" math="0" shadow="0">
            <root>
                <mxCell id="0"/>
                <mxCell id="1" parent="0"/>
                <mxCell id="uGYLsN3fqCkKk5OynrGJ-33" value="" style="endArrow=classic;html=1;rounded=0;fontSize=12;startSize=8;endSize=8;curved=1;" parent="1" edge="1">
                    <mxGeometry width="50" height="50" relative="1" as="geometry">
                        <mxPoint x="827.6184905660377" y="300" as="sourcePoint"/>
                        <mxPoint x="827.6184905660377" y="360" as="targetPoint"/>
                    </mxGeometry>
                </mxCell>
                <mxCell id="uGYLsN3fqCkKk5OynrGJ-15" value="" style="endArrow=classic;html=1;rounded=0;fontSize=12;startSize=8;endSize=8;curved=1;" parent="1" edge="1">
                    <mxGeometry width="50" height="50" relative="1" as="geometry">
                        <mxPoint x="828.1845283018868" y="180" as="sourcePoint"/>
                        <mxPoint x="828.1845283018868" y="240" as="targetPoint"/>
                    </mxGeometry>
                </mxCell>
                <mxCell id="2" value="&lt;font style=&quot;font-size: 18px;&quot;&gt;Pubmed IDを取得する&lt;/font&gt;" style="rounded=1;whiteSpace=wrap;html=1;fontSize=16;container=0;" parent="1" vertex="1">
                    <mxGeometry x="709.8826415094339" y="240" width="237.73584905660377" height="60" as="geometry"/>
                </mxCell>
                <mxCell id="51" value="" style="edgeStyle=none;html=1;" edge="1" parent="1" source="uGYLsN3fqCkKk5OynrGJ-24" target="2">
                    <mxGeometry relative="1" as="geometry"/>
                </mxCell>
                <mxCell id="uGYLsN3fqCkKk5OynrGJ-24" value="E-direct&lt;br/&gt;(PubMed API)" style="rounded=0;whiteSpace=wrap;html=1;fontSize=16;container=0;" parent="1" vertex="1">
                    <mxGeometry x="295" y="240" width="237.73584905660377" height="66" as="geometry"/>
                </mxCell>
                <mxCell id="6" value="検索条件を使用者が設定" style="rounded=0;whiteSpace=wrap;html=1;fontSize=16;container=0;" parent="1" vertex="1">
                    <mxGeometry x="709.8826415094339" y="120" width="237.73584905660377" height="66" as="geometry"/>
                </mxCell>
                <mxCell id="16" value="「このタスクはOOOを行うための関数」と明確にする&lt;br&gt;関数ごとにスクリプトファイル(OOO.py)を作成する" style="text;html=1;align=center;verticalAlign=middle;resizable=0;points=[];autosize=1;strokeColor=none;fillColor=none;container=0;" parent="1" vertex="1">
                    <mxGeometry x="1470.0030188679245" y="390" width="330" height="60" as="geometry"/>
                </mxCell>
                <mxCell id="20" value="Pubmedのデータ取得の&lt;br&gt;処理タスクを関数を使うかを明確にする。&lt;br&gt;実行のタスクを細分化する。" style="text;html=1;align=center;verticalAlign=middle;resizable=0;points=[];autosize=1;strokeColor=none;fillColor=none;container=0;" parent="1" vertex="1">
                    <mxGeometry x="1530.0030188679243" y="584" width="240" height="60" as="geometry"/>
                </mxCell>
                <mxCell id="uGYLsN3fqCkKk5OynrGJ-25" value="論文のAbstract文章中の&lt;br&gt;「遺伝子、タンパク質、過剰発現、変異体、表現型、リプレッサー」&lt;br&gt;というキーワードに注目し、&lt;br&gt;それらの対応関係についての情報を抽出して、表形式で出力する。" style="rounded=0;whiteSpace=wrap;html=1;fontSize=16;container=0;align=center;" parent="1" vertex="1">
                    <mxGeometry x="570" y="1140" width="570" height="120" as="geometry"/>
                </mxCell>
                <mxCell id="21" value="&lt;font style=&quot;font-size: 18px;&quot;&gt;論文ごとに表形式の&lt;br&gt;ファイルが出力される&lt;/font&gt;" style="rounded=1;whiteSpace=wrap;html=1;fontSize=16;container=0;" vertex="1" parent="1">
                    <mxGeometry x="709.882641509434" y="1328" width="237.73584905660377" height="60" as="geometry"/>
                </mxCell>
                <mxCell id="63" value="" style="edgeStyle=none;html=1;" edge="1" parent="1" source="23" target="50">
                    <mxGeometry relative="1" as="geometry"/>
                </mxCell>
                <mxCell id="23" value="E-direct&lt;br&gt;(PubMed API)" style="rounded=0;whiteSpace=wrap;html=1;fontSize=16;container=0;" vertex="1" parent="1">
                    <mxGeometry x="295" y="480" width="237.73584905660377" height="66" as="geometry"/>
                </mxCell>
                <mxCell id="24" value="&lt;font style=&quot;font-size: 18px;&quot;&gt;Pubmed ID&lt;/font&gt;" style="rounded=0;whiteSpace=wrap;html=1;fontSize=16;container=0;" vertex="1" parent="1">
                    <mxGeometry x="709.8826415094339" y="360" width="237.73584905660377" height="66" as="geometry"/>
                </mxCell>
                <mxCell id="36" value="" style="group" vertex="1" connectable="0" parent="1">
                    <mxGeometry x="611" y="540" width="180" height="192" as="geometry"/>
                </mxCell>
                <mxCell id="28" value="" style="endArrow=classic;html=1;rounded=0;fontSize=12;startSize=8;endSize=8;curved=1;" edge="1" parent="36">
                    <mxGeometry width="50" height="50" relative="1" as="geometry">
                        <mxPoint x="89.1428571428573" as="sourcePoint"/>
                        <mxPoint x="89.1428571428573" y="59.99999999999984" as="targetPoint"/>
                    </mxGeometry>
                </mxCell>
                <mxCell id="29" value="&lt;font style=&quot;font-size: 18px;&quot;&gt;PMC IDを使用&lt;/font&gt;" style="rounded=0;whiteSpace=wrap;html=1;fontSize=16;container=0;" vertex="1" parent="36">
                    <mxGeometry y="59.99999999999984" width="180.00000000000006" height="66.00000000000007" as="geometry"/>
                </mxCell>
                <mxCell id="34" value="" style="endArrow=classic;html=1;rounded=0;fontSize=12;startSize=8;endSize=8;curved=1;" edge="1" parent="36">
                    <mxGeometry width="50" height="50" relative="1" as="geometry">
                        <mxPoint x="89.59985714285699" y="125.99999999999991" as="sourcePoint"/>
                        <mxPoint x="89.59985714285699" y="191.99999999999997" as="targetPoint"/>
                    </mxGeometry>
                </mxCell>
                <mxCell id="50" value="&lt;span style=&quot;font-size: 12px;&quot;&gt;PMC IDがあるもの:&lt;br&gt;&lt;/span&gt;&lt;span style=&quot;font-size: 12px;&quot;&gt;Pubmed IDを&lt;/span&gt;&lt;span style=&quot;font-size: 12px;&quot;&gt;PMC IDに変換&lt;/span&gt;&lt;span style=&quot;font-size: 12px;&quot;&gt;&lt;br&gt;&lt;/span&gt;" style="rounded=1;whiteSpace=wrap;html=1;fontSize=16;container=0;" vertex="1" parent="1">
                    <mxGeometry x="612.37" y="483" width="191" height="60" as="geometry"/>
                </mxCell>
                <mxCell id="58" value="" style="group" vertex="1" connectable="0" parent="1">
                    <mxGeometry x="705" y="426" width="233" height="54" as="geometry"/>
                </mxCell>
                <mxCell id="49" value="" style="endArrow=classic;html=1;rounded=0;fontSize=12;startSize=8;endSize=8;curved=1;" edge="1" parent="58">
                    <mxGeometry width="50" height="50" relative="1" as="geometry">
                        <mxPoint x="122.09522389937047" as="sourcePoint"/>
                        <mxPoint y="54.00000000000001" as="targetPoint"/>
                    </mxGeometry>
                </mxCell>
                <mxCell id="57" value="" style="endArrow=classic;html=1;rounded=0;fontSize=12;startSize=8;endSize=8;curved=1;" edge="1" parent="58">
                    <mxGeometry width="50" height="50" relative="1" as="geometry">
                        <mxPoint x="119.60989056603727" as="sourcePoint"/>
                        <mxPoint x="232.99999999999994" y="54.00000000000001" as="targetPoint"/>
                    </mxGeometry>
                </mxCell>
                <mxCell id="59" value="&lt;span style=&quot;font-size: 12px;&quot;&gt;PMC IDがないもの:&lt;br&gt;&lt;/span&gt;&lt;span style=&quot;font-size: 12px;&quot;&gt;Pubmed IDで処理&lt;/span&gt;&lt;span style=&quot;font-size: 12px;&quot;&gt;&lt;br&gt;&lt;/span&gt;" style="rounded=1;whiteSpace=wrap;html=1;fontSize=16;container=0;" vertex="1" parent="1">
                    <mxGeometry x="851.16" y="483" width="191" height="60" as="geometry"/>
                </mxCell>
                <mxCell id="80" value="" style="edgeStyle=none;html=1;" edge="1" parent="1" source="61" target="68">
                    <mxGeometry relative="1" as="geometry"/>
                </mxCell>
                <mxCell id="81" value="" style="edgeStyle=none;html=1;" edge="1" parent="1" source="61" target="68">
                    <mxGeometry relative="1" as="geometry"/>
                </mxCell>
                <mxCell id="61" value="E-direct&lt;br&gt;(PubMed API)" style="rounded=0;whiteSpace=wrap;html=1;fontSize=16;container=0;" vertex="1" parent="1">
                    <mxGeometry x="295" y="630" width="215" height="66" as="geometry"/>
                </mxCell>
                <mxCell id="64" value="" style="group" vertex="1" connectable="0" parent="1">
                    <mxGeometry x="857" y="540" width="180" height="192" as="geometry"/>
                </mxCell>
                <mxCell id="65" value="" style="endArrow=classic;html=1;rounded=0;fontSize=12;startSize=8;endSize=8;curved=1;" edge="1" parent="64">
                    <mxGeometry width="50" height="50" relative="1" as="geometry">
                        <mxPoint x="89.14285714285728" as="sourcePoint"/>
                        <mxPoint x="89.14285714285728" y="59.99999999999984" as="targetPoint"/>
                    </mxGeometry>
                </mxCell>
                <mxCell id="66" value="&lt;font style=&quot;font-size: 18px;&quot;&gt;Pubmed IDを使用&lt;/font&gt;" style="rounded=0;whiteSpace=wrap;html=1;fontSize=16;container=0;" vertex="1" parent="64">
                    <mxGeometry y="59.99999999999984" width="180.00000000000006" height="66.00000000000007" as="geometry"/>
                </mxCell>
                <mxCell id="67" value="" style="endArrow=classic;html=1;rounded=0;fontSize=12;startSize=8;endSize=8;curved=1;" edge="1" parent="64">
                    <mxGeometry width="50" height="50" relative="1" as="geometry">
                        <mxPoint x="89.599857142857" y="125.99999999999991" as="sourcePoint"/>
                        <mxPoint x="89.599857142857" y="191.99999999999997" as="targetPoint"/>
                    </mxGeometry>
                </mxCell>
                <mxCell id="77" value="" style="edgeStyle=none;html=1;exitX=0.5;exitY=1;exitDx=0;exitDy=0;entryX=0.5;entryY=0;entryDx=0;entryDy=0;" edge="1" parent="1" source="68" target="73">
                    <mxGeometry relative="1" as="geometry">
                        <mxPoint x="732" y="780" as="sourcePoint"/>
                        <mxPoint x="810" y="870" as="targetPoint"/>
                    </mxGeometry>
                </mxCell>
                <mxCell id="82" value="" style="edgeStyle=none;html=1;exitX=1;exitY=0.5;exitDx=0;exitDy=0;" edge="1" parent="1" source="61" target="78">
                    <mxGeometry relative="1" as="geometry"/>
                </mxCell>
                <mxCell id="68" value="IDを一つずつ処理してAbstractの文章を取得" style="rounded=1;whiteSpace=wrap;html=1;fontSize=16;container=0;" vertex="1" parent="1">
                    <mxGeometry x="611" y="732" width="191" height="48" as="geometry"/>
                </mxCell>
                <mxCell id="73" value="&lt;font style=&quot;font-size: 18px;&quot;&gt;論文ごとに取得された&lt;br&gt;Abstractの文章&lt;/font&gt;" style="rounded=0;whiteSpace=wrap;html=1;fontSize=16;container=0;" vertex="1" parent="1">
                    <mxGeometry x="720" y="875.5" width="210" height="66" as="geometry"/>
                </mxCell>
                <mxCell id="74" value="" style="endArrow=classic;html=1;rounded=0;fontSize=12;startSize=8;endSize=8;curved=1;" edge="1" parent="1">
                    <mxGeometry width="50" height="50" relative="1" as="geometry">
                        <mxPoint x="827.599857142857" y="935.9999999999999" as="sourcePoint"/>
                        <mxPoint x="827.599857142857" y="1002" as="targetPoint"/>
                    </mxGeometry>
                </mxCell>
                <mxCell id="78" value="IDを一つずつ処理してAbstractの文章を取得" style="rounded=1;whiteSpace=wrap;html=1;fontSize=16;container=0;" vertex="1" parent="1">
                    <mxGeometry x="857" y="732" width="191" height="48" as="geometry"/>
                </mxCell>
                <mxCell id="79" value="" style="edgeStyle=none;html=1;exitX=0.5;exitY=1;exitDx=0;exitDy=0;entryX=0.5;entryY=0;entryDx=0;entryDy=0;" edge="1" parent="1" source="78" target="73">
                    <mxGeometry relative="1" as="geometry">
                        <mxPoint x="938" y="780" as="sourcePoint"/>
                        <mxPoint x="840" y="870" as="targetPoint"/>
                    </mxGeometry>
                </mxCell>
                <mxCell id="89" value="" style="edgeStyle=none;html=1;" edge="1" parent="1" source="83">
                    <mxGeometry relative="1" as="geometry">
                        <mxPoint x="660" y="1034" as="targetPoint"/>
                    </mxGeometry>
                </mxCell>
                <mxCell id="83" value="ChatGPT API" style="rounded=0;whiteSpace=wrap;html=1;fontSize=16;container=0;" vertex="1" parent="1">
                    <mxGeometry x="306" y="1000" width="204" height="66" as="geometry"/>
                </mxCell>
                <mxCell id="84" value="&lt;font style=&quot;font-size: 18px;&quot;&gt;ChatGPT APIを用いてAbstarctの内容を&lt;br&gt;要約して、表形式で出力&lt;/font&gt;" style="rounded=1;whiteSpace=wrap;html=1;fontSize=16;container=0;" vertex="1" parent="1">
                    <mxGeometry x="660" y="996" width="360" height="75" as="geometry"/>
                </mxCell>
                <mxCell id="87" value="" style="edgeStyle=none;html=1;" edge="1" parent="1">
                    <mxGeometry relative="1" as="geometry">
                        <mxPoint x="825.0045945945946" y="1260" as="sourcePoint"/>
                        <mxPoint x="826.5586486486485" y="1329" as="targetPoint"/>
                    </mxGeometry>
                </mxCell>
                <mxCell id="91" value="" style="endArrow=classic;html=1;rounded=0;fontSize=12;startSize=8;endSize=8;curved=1;" edge="1" parent="1">
                    <mxGeometry width="50" height="50" relative="1" as="geometry">
                        <mxPoint x="827.8398571428572" y="1071" as="sourcePoint"/>
                        <mxPoint x="827.8398571428572" y="1137" as="targetPoint"/>
                    </mxGeometry>
                </mxCell>
                <mxCell id="92" value="&lt;span style=&quot;font-size: 16px;&quot;&gt;プロンプト(例):&lt;/span&gt;" style="text;html=1;align=center;verticalAlign=middle;resizable=0;points=[];autosize=1;strokeColor=none;fillColor=none;fontSize=18;" vertex="1" parent="1">
                    <mxGeometry x="453" y="1109" width="120" height="60" as="geometry"/>
                </mxCell>
                <mxCell id="93" value="&lt;span style=&quot;font-size: 18px;&quot;&gt;関数1&lt;/span&gt;" style="rounded=1;whiteSpace=wrap;html=1;fontSize=16;container=0;" vertex="1" parent="1">
                    <mxGeometry x="1140.002641509434" y="240" width="237.73584905660377" height="60" as="geometry"/>
                </mxCell>
                <mxCell id="94" value="&lt;span style=&quot;font-size: 18px;&quot;&gt;関数2&lt;/span&gt;" style="rounded=1;whiteSpace=wrap;html=1;fontSize=16;container=0;" vertex="1" parent="1">
                    <mxGeometry x="1140.002641509434" y="485" width="237.73584905660377" height="60" as="geometry"/>
                </mxCell>
                <mxCell id="95" value="&lt;span style=&quot;font-size: 18px;&quot;&gt;関数3&lt;br&gt;&lt;/span&gt;" style="rounded=1;whiteSpace=wrap;html=1;fontSize=16;container=0;" vertex="1" parent="1">
                    <mxGeometry x="1140.002641509434" y="727" width="237.73584905660377" height="60" as="geometry"/>
                </mxCell>
            </root>
        </mxGraphModel>
    </diagram>
</mxfile>